<svg xmlns="http://www.w3.org/2000/svg" enable-background="new 0 0 24 24" viewBox="0 0 24 24" id="laravel"><path fill="#F34E39" d="M24 3.922c-.159-.193-.365-.453-.568-.717L23.37 3.121v-.01c-.25-.34-.431-.29-.63-.24-.2.05-4.771.87-5.051.9-.279.05-.189.2-.069.36l4 5.502L24 9.063V3.922zM.02 14.826l4.33-1.04c.351-.08.261-.12.09-.431L.02 5.723V14.826L.02 14.826zM3.2 24h7.189c-.939-1.53-3.5-6.152-4.829-8.563H5.55v-.01L0 16.877v3.932C.006 22.572 1.435 24 3.2 24L3.2 24z"></path><polygon fill="#F34E39" points="24 12.775 24 10.584 22.65 10.954 22.75 11.095"></polygon><path fill="#F34E39" d="M20.16 9.984l-4.53-6.423c-.38-.53 0-.77.62-.87.599-.11 5.84-.991 6.299-1.051.37-.06.681-.18 1.2.299C23.269.801 22.14 0 20.82 0H3.2 3.195C1.646 0 .357 1.106.07 2.591l6.39 10.675L20.16 9.984 20.16 9.984zM24 15.126l-2.56-3.501c-.159-.25-.25-.3-.64-.17L7.439 14.937c0 0 4.101 7.102 4.41 7.552.321.46.511.42.761.321.18-.08 7.8-2.661 11.39-3.872V15.126L24 15.126zM23.99 21.059L15.8 23.99h5.021C22.5 23.99 23.87 22.689 23.99 21.059z"></path><path fill="#DEDEDE" d="M0.02,14.826V5.723l4.42,7.633c0.171,0.311,0.261,0.35-0.09,0.431L0.02,14.826L0.02,14.826z"></path><path fill="#D44432" d="M.02 5.723v9.104l4.33-1.04c.351-.08.261-.12.09-.431L.02 5.723.02 5.723zM5.55 15.427L0 16.877v3.932C.006 22.572 1.435 24 3.2 24h7.189c-.939-1.53-3.5-6.152-4.829-8.563H5.55V15.427L5.55 15.427zM12 0H3.2 3.195C1.646 0 .357 1.106.07 2.591l6.39 10.675L12 11.939V0L12 0zM12 13.748l-4.561 1.188c0 0 4.101 7.102 4.41 7.552.053.077.103.139.15.19V13.748L12 13.748z"></path></svg>